<svg id="Capa_1" enable-background="new 0 0 512 512" height="512" viewBox="0 0 512 512" width="512" xmlns="http://www.w3.org/2000/svg"><g><path d="m487.094 434.68h-451.224l-24.96-340.226h490.184v326.226c0 7.732-6.268 14-14 14z" fill="#f2fbff"/><path d="m51.086 434.681h-25.754c-7.963 0-14.422-6.459-14.422-14.422v-325.803h25.754v325.803c0 7.963 6.459 14.422 14.422 14.422z" fill="#dff6fd"/><path d="m22.043 51.321h479.957c5.523 0 10 4.477 10 10v57.397c0 5.523-4.477 10-10 10h-477.348z" fill="#b289c9"/><path d="m36.056 128.719h-25.754c-5.687 0-10.302-4.615-10.302-10.301v-56.794c0-5.686 4.615-10.302 10.302-10.302h25.754c-5.687 0-10.302 4.615-10.302 10.302v56.794c0 5.686 4.616 10.301 10.302 10.301z" fill="#a274bf"/><g fill="#ffe177"><path d="m91.458 83.57h-20.007c-6.627 0-12-5.373-12-12v-49.367c0-6.627 5.373-12 12-12h20.006c6.627 0 12 5.373 12 12v49.367c.001 6.627-5.372 12-11.999 12z"/><path d="m178.731 83.57h-20.006c-6.627 0-12-5.373-12-12v-49.367c0-6.627 5.373-12 12-12h20.006c6.627 0 12 5.373 12 12v49.367c0 6.627-5.372 12-12 12z"/><path d="m266.005 83.57h-20.006c-6.627 0-12-5.373-12-12v-49.367c0-6.627 5.373-12 12-12h20.006c6.627 0 12 5.373 12 12v49.367c0 6.627-5.373 12-12 12z"/></g><path d="m453.606 235.991-35.283 29.875c-2.04 1.741-4.636 2.689-7.325 2.689h-204.943l-7.027-39.12 7.027-44.87h204.943c2.689 0 5.285.958 7.325 2.689l35.283 29.875c5.821 4.934 5.821 13.928 0 18.862z" fill="#c8effe"/><path d="m353.279 83.57h-20.006c-6.627 0-12-5.373-12-12v-49.367c0-6.627 5.373-12 12-12h20.006c6.627 0 12 5.373 12 12v49.367c0 6.627-5.373 12-12 12z" fill="#ffe177"/><path d="m440.552 83.57h-20.006c-6.627 0-12-5.373-12-12v-49.367c0-6.627 5.373-12 12-12h20.006c6.627 0 12 5.373 12 12v49.367c0 6.627-5.372 12-12 12z" fill="#ffe177"/><path d="m363.866 496.5c-48.86 0-76.761-36.92-73.257-85.655 0 0 12.564-76.684 17.228-72.372 4.123 3.811 8.118 6.822 11.931 8.781 2.346 1.205 5.209-.07 5.872-2.623 9.937-38.263 26.178-67.404 45.257-92.436 2.172-2.85 6.682-1.757 7.333 1.766 6.582 35.6 17.195 69.325 36.243 99.126 1.334 2.087 4.204 2.561 6.103.971 5.934-4.967 12.094-8.785 18.518-11.261 2.593-.999 5.398.892 5.535 3.667l3.302 67.023c1.65 33.489-16.477 63.198-43.894 78.125-11.922 6.494-40.171 4.888-40.171 4.888z" fill="#fe93bb"/><path d="m151.137 184.565h54.919v83.99h-54.919z" fill="#99e6fc"/><path d="m375.189 496.674c-3.698.505-7.558 1.326-11.4 1.326-14.828 0-28.632-.022-40.679-6.704-27.65-15.336-45.631-45.754-43.191-79.701l6.212-86.38c.268-3.698 4.904-5.192 7.273-2.339 4.935 5.954 9.776 11.28 14.433 15.597l-5.254 73.122c-1.655 23.042 6.099 44.459 19.898 60.636 13.087 15.342 31.613 21.61 52.708 24.443z" fill="#fe76a8"/><path d="m192.7 226.562c0 34.434-25.102 62.998-58.005 68.407-3.687.606-8.098-.186-11.956-.186-38.293 0-58.435-29.559-58.435-67.852s20.768-68.322 59.061-68.322c3.865 0 7.638-1.065 11.33-.457 32.895 5.415 58.005 33.982 58.005 68.41z" fill="#fe93bb"/><path d="m134.695 294.969c-3.688.608-7.469.927-11.332.927-38.292 0-69.331-31.039-69.331-69.331s31.039-69.341 69.331-69.341c3.863 0 7.644.319 11.332.927-32.904 5.408-57.999 33.985-57.999 68.414s25.095 62.995 57.999 68.404z" fill="#fe76a8"/><path d="m200.761 351.569 19.782-34.263c.77-1.333-.192-3-1.732-3h-39.564c-1.54 0-2.502 1.667-1.732 3l19.782 34.263c.769 1.334 2.694 1.334 3.464 0z" fill="#fe93bb"/><path d="m406.208 470.572-2.171 21.043c-11.929 6.48-25.592 10.182-40.169 10.182-6.049 0-11.943-.636-17.618-1.844-8.233-1.752-11.678-12.212-18.806-16.17v-61.957c-.093-2.864 18.5-8.017 18.746-8.047.809-.1 1.551-.557 2.009-1.267l23.303-36.551c2.843-4.471 9.375-4.471 12.228-.01 15.236 23.828 23.251 51.436 23.251 79.509-.001 5.027-.258 10.075-.773 15.112z" fill="#ffe177"/><path d="m142.987 267.426c-2.546 0-5.029-1.297-6.436-3.638l-14.477-24.095c-2.133-3.55-.984-8.157 2.566-10.291 3.551-2.135 8.158-.984 10.292 2.565l14.477 24.095c2.133 3.55.984 8.157-2.566 10.291-1.21.727-2.542 1.073-3.856 1.073z" fill="#ffd15b"/><path d="m123.365 227.152c-4.142 0-7.5-3.357-7.5-7.5v-36.136c0-4.143 3.358-7.5 7.5-7.5s7.5 3.357 7.5 7.5v36.136c0 4.143-3.358 7.5-7.5 7.5z" fill="#ffd15b"/><path d="m344.294 417.652 1.955 82.3c-8.231-1.741-16.011-4.701-23.139-8.657l-2.51-75.704c-.093-2.864 2.421-5.11 5.254-4.698l19.584 2.874c.258.041.505.041.752.01-1.185.857-1.947 2.268-1.896 3.875z" fill="#ffd15b"/><circle cx="123.363" cy="226.562" fill="#ffe177" r="13.924"/><path d="m253.767 245.888c-2.338 0-4.642-1.091-6.106-3.137-2.41-3.369-1.633-8.054 1.736-10.464l8.001-5.725-8.001-5.725c-3.369-2.41-4.146-7.095-1.736-10.464 2.411-3.368 7.096-4.146 10.463-1.735l14.186 10.148c2.503 1.791 3.998 4.697 3.998 7.775s-1.495 5.984-3.999 7.775l-14.185 10.148c-1.322.949-2.847 1.404-4.357 1.404zm9.815-14.902h.01z" fill="#99e6fc"/><path d="m294.857 245.888c-2.338 0-4.642-1.091-6.105-3.137-2.41-3.369-1.633-8.054 1.735-10.464l8.002-5.725-8.002-5.725c-3.368-2.41-4.146-7.095-1.735-10.464 2.41-3.368 7.096-4.146 10.464-1.735l14.186 10.148c2.504 1.793 3.997 4.699 3.997 7.775s-1.493 5.982-3.995 7.773l-14.188 10.15c-1.322.949-2.848 1.404-4.359 1.404zm9.814-14.904h.01z" fill="#99e6fc"/><path d="m335.948 245.888c-2.338 0-4.642-1.091-6.105-3.137-2.41-3.369-1.633-8.054 1.735-10.464l8.002-5.725-8.002-5.725c-3.368-2.41-4.146-7.095-1.735-10.464 2.41-3.368 7.096-4.146 10.464-1.735l14.186 10.148c2.503 1.791 3.998 4.697 3.998 7.775s-1.495 5.984-3.999 7.775l-14.185 10.148c-1.323.949-2.848 1.404-4.359 1.404zm9.817-14.902h.01z" fill="#99e6fc"/><path d="m229.044 388.096h-175.016c-4.142 0-7.5-3.357-7.5-7.5s3.358-7.5 7.5-7.5h175.016c4.142 0 7.5 3.357 7.5 7.5s-3.357 7.5-7.5 7.5z" fill="#fe76a8"/><path d="m54.028 403.011c-4.142 0-7.5-3.357-7.5-7.5v-29.83c0-4.143 3.358-7.5 7.5-7.5s7.5 3.357 7.5 7.5v29.83c0 4.142-3.358 7.5-7.5 7.5z" fill="#fe76a8"/><path d="m229.044 403.011c-4.142 0-7.5-3.357-7.5-7.5v-29.83c0-4.143 3.358-7.5 7.5-7.5s7.5 3.357 7.5 7.5v29.83c0 4.142-3.357 7.5-7.5 7.5z" fill="#fe76a8"/></g></svg>